<svg width="1479" height="692" xmlns="http://www.w3.org/2000/svg">
  <g>
    <title>background</title>
    <rect x="-1" y="-1" width="1481" height="694" id="canvas_background" fill="none"/>
  </g>

  <g>
    <title>Layer 1</title>
    <g stroke="null" fill="#324063" id="svg_1">
      <g stroke="null" transform="translate(0,600) scale(0.10000000149011612,-0.10000000149011612) " id="svg_2">
        <path stroke="null" d="m6188.960545,5996.919021c-282.617234,-42.31637 -531.533751,-280.09409 -613.037754,-585.61231c-15.072372,-58.2654 -15.96136,-131.57948 -15.96136,-1513.31413c0,-1381.73464 0.888988,-1455.04873 15.96136,-1513.357c74.432513,-277.3073 276.394329,-491.59022 537.756677,-570.56363c54.91518,-15.9919 124.013764,-16.93513 1421.895224,-16.93513c1308.508902,0 1366.980034,0.94323 1426.340164,17.87835c219.701152,62.98151 403.964034,225.60158 496.09547,440.82772c15.961371,37.60026 36.327268,97.75211 45.176735,133.46592c15.961371,62.98152 16.850359,125.01981 16.850359,1513.35701c0,1377.06141 -0.888988,1450.37549 -15.961371,1508.64089c-62.027083,231.21804 -215.256223,422.99224 -416.369453,521.68758c-144.420075,70.48441 -14.183395,64.86795 -1521.098161,66.7544c-743.314837,0.94322 -1362.575507,-0.94322 -1377.64789,-2.82967zm2790.612832,-173.89586c184.262882,-66.71152 312.721587,-203.00712 374.74867,-397.61099l23.92185,-75.20053l2.666964,-424.87868l2.666964,-425.82191l-1842.709617,0l-1843.598605,0l0,394.78132c0,450.21707 3.555952,487.81733 63.805059,620.38291c50.510663,112.80079 148.824602,216.21223 255.139433,270.70475c138.19717,70.48441 43.398759,66.7544 1545.908999,64.86795l1346.573734,-1.88644l70.87655,-25.33838l0,0zm401.337483,-2425.06692l-2.666964,-952.18272l-23.92185,-75.20053c-62.916071,-195.50422 -191.374776,-330.85659 -374.74867,-397.61099l-70.87655,-25.38125l-1368.717608,0l-1368.717608,0l-70.87655,25.38125c-154.15853,55.43574 -274.616353,166.39295 -340.199388,310.19145c-64.694047,142.85528 -62.916071,111.85757 -62.916071,1144.85728l0,921.18501l1842.709617,0l1843.598605,0l-2.666964,-951.2395l0,0z" id="svg_3"/>
        <path stroke="null" d="m6095.051133,5684.884001c-113.386322,-38.54349 -208.184732,-141.95493 -241.845026,-263.20184c-15.961371,-57.32218 -19.47692,-253.76963 -5.333928,-281.98054c4.444929,-9.38935 20.365898,-22.55158 35.43827,-29.15414c30.993341,-14.10546 74.432513,0 88.575494,29.15414c5.333928,9.38935 8.849467,61.09507 8.849467,116.5308c0,135.35238 10.627443,176.72553 62.027083,230.27482c50.510663,54.53539 89.464482,65.81118 217.034199,65.81118c52.248226,0 100.980903,3.77289 109.870783,9.38934c27.477801,15.04868 40.731795,61.09507 27.477801,93.97923c-6.222916,15.9919 -18.587922,32.88415 -27.477801,37.60026c-28.326377,16.03477 -219.701152,10.37544 -274.616342,-8.40325l0,0z" id="svg_4"/>
        <path stroke="null" d="m7420.369981,5697.060141c-14.183395,-1.88645 -72.654537,-10.33257 -128.458704,-18.7787c-183.373894,-26.32447 -652.920975,-137.23881 -703.431627,-165.44973c-24.810838,-14.10546 -39.88322,-36.65704 -40.731795,-58.2654c0,-31.04058 169.1905,-751.96239 182.484906,-773.61363c6.182503,-11.27579 19.47691,-22.55158 29.215365,-26.32447c8.849467,-2.82967 113.386322,9.38935 232.106571,27.26769s262.210934,37.60027 318.055514,44.15995c217.034188,24.43803 463.324164,9.38935 838.072834,-52.64894c81.503993,-14.10546 157.714482,-22.55159 168.341924,-19.72192c11.516431,3.77289 26.588803,15.04868 33.660294,27.26769c12.405419,20.66514 182.484906,744.45949 182.484906,774.51398c-0.888988,21.60836 -16.850348,43.21672 -41.620773,58.2654c-45.176735,25.38125 -500.540421,133.46593 -698.09771,165.44973c-87.686496,14.14833 -321.571053,25.42412 -372.081706,17.87835l0,0zm298.578605,-159.7904c174.524417,-23.49481 627.221139,-125.0198 647.587036,-144.74172c6.222916,-5.65933 -117.831261,-567.73396 -127.569716,-577.12331c-1.777976,-1.88645 -81.503993,8.44612 -176.302403,22.55158c-94.7984,15.04868 -235.662523,32.88415 -311.832588,38.54349l-139.975145,12.21901l0,181.39876l0,181.39876l-70.87655,0l-70.876561,0l0,-181.39876l0,-181.39876l-139.086147,-12.21901c-77.059053,-6.60256 -217.923176,-23.49481 -312.721587,-37.60027c-94.7984,-15.04868 -174.524417,-25.38125 -176.302393,-23.4948c-7.071491,6.55968 -133.792632,563.01785 -130.23668,573.39329c1.777976,4.71611 24.810838,15.04868 50.510653,21.60836c534.200725,134.40916 720.241573,158.84718 957.682082,126.86338z" id="svg_5"/>
        <path stroke="null" d="m9137.287858,2835.838741c-31.882328,-14.10546 -38.105244,-40.42993 -38.105244,-156.96074c0,-162.62006 -26.588813,-248.15316 -101.869891,-327.0837c-75.281088,-79.91664 -155.047518,-108.08468 -310.054623,-108.08468c-118.720249,0 -140.864123,-8.44612 -150.602578,-55.47861c-6.222916,-30.99771 13.294396,-79.91664 35.43827,-89.30598c28.366789,-11.2758 221.479139,-5.61646 278.172294,8.44612c178.969367,45.10317 334.86546,210.5529 377.415644,400.44066c13.294396,60.15185 18.587922,265.08829 7.960479,295.14277c-6.222916,15.99191 -48.732687,42.31638 -67.320609,41.37316c-6.222916,-0.04288 -20.4063,-3.77289 -31.033743,-8.489z" id="svg_6"/>
        <path stroke="null" d="m8270.848234,2220.171941c-44.287747,-46.04639 -13.294407,-126.90625 48.732677,-126.90625c36.327268,0 70.876561,36.65705 70.876561,75.20053c0,38.54349 -34.549292,75.20053 -70.876561,75.20053c-16.850348,0 -35.43827,-8.44613 -48.732677,-23.49481l0,0z" id="svg_7"/>
      </g>
    </g>
    <text stroke="null" transform="matrix(0.6897459794966606,0,0,0.7573436169696621,97.75475980009088,81.42954000266927) " fill="#324063" x="952.950208" y="657.314671" text-anchor="middle" font-size="250" font-weight="900" font-family="'Courier New', Courier, monospace" id="svg_8">Weight Tracker</text>
    <text stroke="null" transform="matrix(0.5848397161238132,0,0,0.6360310406007555,616.8997899286554,207.8254993328104) " fill="#324063" x="234.425733" y="736.144959" text-anchor="middle" font-size="100" font-family="monospace" id="svg_9">If you measure it, you'll improve it</text>
    <path fill="#fff" stroke="#000" stroke-width="1.5" d="m0.75,491.599829" id="svg_11"/>
  </g>
</svg>
