<?xml version="1.0" encoding="utf-8"?>
<!DOCTYPE svg PUBLIC "-//W3C//DTD SVG 1.1//EN" "http://www.w3.org/Graphics/SVG/1.1/DTD/svg11.dtd">
<svg version="1.1" xmlns="http://www.w3.org/2000/svg" xmlns:xlink="http://www.w3.org/1999/xlink" x="0px" y="0px" viewBox="0 0 1000 1000" enable-background="new 0 0 1000 1000" xml:space="preserve">
  <g fill="#324063">
    <g transform="translate(0.000000,511.000000) scale(0.100000,-0.100000)">
      <path d="M1656.6,5004.2c-699.4-98.7-1315.4-653.3-1517.1-1365.9C102.2,3502.4,100,3331.4,100,108.6c0-3222.8,2.2-3393.8,39.5-3529.8c184.2-646.8,684-1146.6,1330.8-1330.8c135.9-37.3,306.9-39.5,3518.8-39.5c3238.2,0,3382.9,2.2,3529.8,41.7c543.7,146.9,999.7,526.2,1227.7,1028.2c39.5,87.7,89.9,228,111.8,311.3c39.5,146.9,41.7,291.6,41.7,3529.8c0,3211.9-2.2,3382.9-39.5,3518.8c-153.5,539.3-532.7,986.6-1030.4,1216.8c-357.4,164.4-35.1,151.3-3764.3,155.7C3226.4,5013,1693.9,5008.6,1656.6,5004.2z M8562.6,4598.6c456-155.6,773.9-473.5,927.4-927.4l59.2-175.4l6.6-991l6.6-993.2H5002.2H439.8v920.8c0,1050.1,8.8,1137.8,157.9,1447c125,263.1,368.3,504.3,631.4,631.4c342,164.4,107.4,155.7,3825.7,151.3l3332.4-4.4L8562.6,4598.6z M9555.8-1057.7l-6.6-2220.9L9490-3454c-155.7-456-473.6-771.7-927.4-927.4l-175.4-59.2H5000H1612.8l-175.4,59.2c-381.5,129.3-679.6,388.1-841.9,723.5C435.4-3324.7,439.8-3397,439.8-987.6V1161H5000h4562.4L9555.8-1057.7z"/>
      <path d="M1424.2,4276.4c-280.6-89.9-515.2-331.1-598.5-613.9c-39.5-133.7-48.2-591.9-13.2-657.7c11-21.9,50.4-52.6,87.7-68c76.7-32.9,184.2,0,219.2,68c13.2,21.9,21.9,142.5,21.9,271.8c0,315.7,26.3,412.2,153.5,537.1c125,127.2,221.4,153.5,537.1,153.5c129.3,0,249.9,8.8,271.9,21.9c68,35.1,100.8,142.5,68,219.2c-15.4,37.3-46,76.7-68,87.7C2033.7,4333.4,1560.1,4320.2,1424.2,4276.4z"/>
      <path d="M4704,4304.8c-35.1-4.4-179.8-24.1-317.9-43.8c-453.8-61.4-1615.8-320.1-1740.8-385.9c-61.4-32.9-98.7-85.5-100.8-135.9c0-72.4,418.7-1753.9,451.6-1804.4c15.3-26.3,48.2-52.6,72.3-61.4c21.9-6.6,280.6,21.9,574.4,63.6s648.9,87.7,787.1,103c537.1,57,1146.6,21.9,2074-122.8c201.7-32.9,390.3-52.6,416.6-46c28.5,8.8,65.8,35.1,83.3,63.6c30.7,48.2,451.6,1736.4,451.6,1806.5c-2.2,50.4-41.7,100.8-103,135.9c-111.8,59.2-1238.7,311.3-1727.6,385.9C5407.8,4296.1,4829,4322.4,4704,4304.8z M5442.9,3932.1c431.9-54.8,1552.2-291.6,1602.6-337.6c15.4-13.2-291.6-1324.2-315.7-1346.1c-4.4-4.4-201.7,19.7-436.3,52.6c-234.6,35.1-583.2,76.7-771.7,89.9l-346.4,28.5v423.1v423.1H5000h-175.4v-423.1v-423.1l-344.2-28.5c-190.7-15.4-539.3-54.8-773.9-87.7c-234.6-35.1-431.9-59.2-436.3-54.8c-17.5,15.3-331.1,1313.2-322.3,1337.4c4.4,11,61.4,35.1,125,50.4C4394.9,3949.7,4855.3,4006.7,5442.9,3932.1z"/>
      <path d="M8952.9-2368.8c-78.9-32.9-94.3-94.3-94.3-366.1c0-379.3-65.8-578.8-252.1-762.9c-186.3-186.4-383.7-252.1-767.3-252.1c-293.8,0-348.6-19.7-372.7-129.4c-15.4-72.3,32.9-186.4,87.7-208.3c70.2-26.3,548.1-13.1,688.4,19.7c442.9,105.2,828.7,491.1,934,934c32.9,140.3,46,618.3,19.7,688.4c-15.4,37.3-120.6,98.7-166.6,96.5C9014.3-2349.1,8979.2-2357.8,8952.9-2368.8z"/>
      <path d="M6808.7-3804.8c-109.6-107.4-32.9-296,120.6-296c89.9,0,175.4,85.5,175.4,175.4c0,89.9-85.5,175.4-175.4,175.4C6887.6-3750,6841.6-3769.7,6808.7-3804.8z"/>
    </g>
  </g>
</svg>
